<svg width="64" height="64" viewBox="0 0 64 64" fill="none" xmlns="http://www.w3.org/2000/svg">
<path d="M32 5.33325C31.6474 5.3333 31.2982 5.40329 30.9728 5.53918C30.6474 5.67507 30.3521 5.87416 30.1042 6.12492L3.20834 29.5937C3.04036 29.7176 2.90384 29.8793 2.80976 30.0656C2.71567 30.252 2.66666 30.4578 2.66667 30.6666C2.66667 31.0202 2.80715 31.3593 3.0572 31.6094C3.30724 31.8594 3.64638 31.9999 4.00001 31.9999H10.6667V53.3333C10.6667 54.8053 11.8613 55.9999 13.3333 55.9999H24C25.472 55.9999 26.6667 54.8053 26.6667 53.3333V37.3333H37.3333V53.3333C37.3333 54.8053 38.528 55.9999 40 55.9999H50.6667C52.1387 55.9999 53.3333 54.8053 53.3333 53.3333V31.9999H60C60.3536 31.9999 60.6928 31.8594 60.9428 31.6094C61.1929 31.3593 61.3333 31.0202 61.3333 30.6666C61.3333 30.4578 61.2843 30.252 61.1903 30.0656C61.0962 29.8793 60.9596 29.7176 60.7917 29.5937L33.9115 6.14054C33.9063 6.13531 33.9011 6.13011 33.8958 6.12492C33.6479 5.87416 33.3526 5.67507 33.0272 5.53918C32.7018 5.40329 32.3527 5.3333 32 5.33325Z" fill="#FDBA74"/>
</svg>
